<?xml version="1.0" encoding="UTF-8"?>
<svg width="571px" height="139px" viewBox="0 0 571 139" version="1.1" xmlns="http://www.w3.org/2000/svg"
>
    <!-- Generator: Sketch 49.3 (51167) - http://www.bohemiancoding.com/sketch -->
    <title>Artboard</title>
    <desc>Created with Sketch.</desc>
    <defs></defs>
    <g id="Artboard" stroke="none" stroke-width="1" fill="none" fill-rule="evenodd">
        <path d="M96.777,23.437 C94.165,23.478 83.004,18.225 73.783,16.909 C67.298,15.983 61.654,15.983 61.654,15.983 C61.654,15.983 61.654,100.758 61.654,104.927 C61.654,118.004 67.087,136.765 67.087,136.765 L36.386,136.765 C36.386,136.765 41.566,121.415 41.566,105.306 C41.566,101.515 41.44,16.615 41.44,16.615 C41.44,16.615 21.983,15.225 0,23.943 C7.454,3.222 7.075,0.822 7.075,0.822 L102.589,0.822 C102.589,0.822 99.304,13.33 96.777,23.437"
              id="Fill-1" fill="#FFFFFF" fill-rule="nonzero"></path>
        <path d="M126.511,123.681 C112.127,123.681 109.927,115.563 109.601,111.244 C109.096,104.549 113.012,96.778 113.202,96.308 C118.423,96.297 137.376,96.308 137.376,96.308 L137.544,122.588 C137.544,122.588 137.396,123.681 126.511,123.681 Z M159.105,136.828 C159.105,136.828 157.841,134.893 157.421,133.038 C157,131.182 155.484,122.169 155.484,118.043 C155.484,113.917 155.484,77.361 155.484,72.054 C155.484,66.75 156.075,55.21 145.797,46.451 C139.145,41.229 129.961,40.387 127.099,40.387 C116.739,40.303 104.78,45.464 104.78,45.464 L99.557,63.487 C99.557,63.487 109.664,55.907 119.351,55.907 C133.669,55.907 137.459,66.776 137.459,69.133 C137.459,71.49 137.459,81.341 137.459,81.341 C137.459,81.341 117.659,89.565 107.475,93.975 C99.304,97.512 90.965,105.168 90.965,115.615 C90.965,143 123.729,138.763 123.729,138.763 L137.459,128.237 L137.459,136.828 L159.105,136.828 Z"
              id="Fill-3" fill="#FFFFFF" fill-rule="nonzero"></path>
        <path d="M200.63,2.423 C190.27,3.937 173.762,7.644 173.762,7.644 C173.762,7.644 177.298,15.73 177.383,20.026 C177.468,24.322 177.383,120.763 177.383,123.879 C177.383,130.953 174.351,136.765 174.351,136.765 L200.545,136.765 C200.545,136.765 198.859,132.722 198.271,130.278 C197.682,127.835 195.914,118.698 195.914,106.443 C195.914,97.725 195.914,43.944 195.914,40.156 C195.914,36.367 196.924,18.676 197.935,13.707 C198.946,8.738 200.25,4.044 200.63,2.423"
              id="Fill-5" fill="#FFFFFF" fill-rule="nonzero"></path>
        <path d="M269.444,78.818 L233.479,78.818 C233.479,78.818 233.336,67.992 237.941,61.634 C241.479,56.75 246.618,53.826 251.504,53.801 C259.125,53.759 262.79,56.791 266.074,60.581 C270.17,65.307 269.444,78.818 269.444,78.818 Z M271.801,47.314 C267.545,43.969 261.358,40.325 253.861,40.325 C219.749,40.325 213.769,78.395 213.769,91.958 C213.769,117.893 229.605,138.787 258.073,138.787 C269.359,138.787 275.508,136.008 275.508,136.008 L283.004,118.319 C283.004,118.319 270.625,124.301 262.707,124.301 C240.048,124.301 233.479,101.638 233.479,91.871 C243.67,91.788 284.268,91.871 284.268,91.871 C284.268,91.871 284.268,82.016 284.268,78.731 C284.268,76.267 284.569,57.346 271.801,47.314 Z"
              id="Fill-6" fill="#FFFFFF" fill-rule="nonzero"></path>
        <path d="M321.834,55.907 L321.917,41.504 L298.986,41.504 C298.986,41.504 303.281,56.033 303.281,63.614 C303.281,71.194 303.281,115.035 303.281,120.215 C303.281,125.394 299.681,136.702 299.681,136.702 L325.455,136.702 C325.455,136.702 321.98,123.752 321.98,116.676 C321.98,109.601 321.98,64.498 321.98,64.498 C321.98,64.498 333.541,58.37 339.921,58.37 C346.301,58.37 354.829,62.812 354.829,72.141 C354.829,77.512 354.829,115.982 354.829,119.962 C354.829,128.174 351.229,136.765 351.229,136.765 L376.434,136.765 C376.434,136.765 373.401,125.079 373.401,117.435 C373.401,109.791 373.401,71.952 373.401,67.278 C373.401,55.401 365.379,46.431 360.957,43.905 C353.147,39.441 339.885,38.191 331.267,47.148 C326.971,51.611 321.834,55.907 321.834,55.907"
              id="Fill-7" fill="#FFFFFF" fill-rule="nonzero"></path>
        <path d="M416.42,55.465 L438.088,55.465 L438.088,41.504 L416.42,41.504 L416.42,22.995 L385.53,55.401 L398.228,55.401 C398.228,55.401 398.207,103.032 398.228,109.412 C398.311,138.111 411.789,138.704 418.189,138.704 C431.664,138.704 436.13,136.512 437.393,135.817 C438.783,132.28 444.215,118.13 444.215,118.13 C444.215,118.13 436.256,122.173 429.623,122.173 C417.241,122.173 416.42,109.475 416.42,102.147 C416.42,96.904 416.42,55.465 416.42,55.465"
              id="Fill-8" fill="#FFFFFF" fill-rule="nonzero"></path>
        <polyline id="Fill-9" fill="#FFFFFF" fill-rule="nonzero"
                  points="543.184 41.504 507.682 41.504 507.682 6.002 493.867 6.002 493.867 41.504 458.365 41.504 458.365 55.317 493.867 55.317 493.867 90.82 507.682 90.82 507.682 55.317 543.184 55.317 543.184 41.504"></polyline>
        <path d="M565.874,131.486 C564.978,133.078 563.734,134.325 562.146,135.218 C560.56,136.114 558.886,136.56 557.129,136.56 C555.38,136.56 553.71,136.114 552.118,135.218 C550.523,134.325 549.279,133.078 548.392,131.486 C547.503,129.891 547.057,128.214 547.057,126.457 C547.057,124.687 547.515,122.998 548.423,121.379 C549.335,119.764 550.583,118.525 552.166,117.664 C553.749,116.803 555.403,116.369 557.129,116.369 C558.854,116.369 560.509,116.803 562.1,117.664 C563.687,118.525 564.938,119.764 565.851,121.379 C566.758,122.998 567.217,124.687 567.217,126.457 C567.217,128.214 566.767,129.891 565.874,131.486 Z M567.963,120.151 C566.829,118.145 565.277,116.601 563.304,115.528 C561.326,114.45 559.261,113.913 557.113,113.913 C554.961,113.913 552.896,114.45 550.922,115.528 C548.944,116.601 547.393,118.145 546.264,120.151 C545.135,122.161 544.569,124.261 544.569,126.457 C544.569,128.639 545.122,130.724 546.231,132.707 C547.338,134.684 548.885,136.232 550.863,137.338 C552.845,138.447 554.93,139 557.113,139 C559.297,139 561.377,138.447 563.359,137.338 C565.341,136.232 566.885,134.684 567.994,132.707 C569.1,130.724 569.656,128.639 569.656,126.457 C569.656,124.261 569.092,122.161 567.963,120.151 Z"
              id="Fill-11" fill="#FFFFFF" fill-rule="nonzero"></path>
        <path d="M558.151,125.426 C557.776,125.545 556.805,125.607 555.245,125.607 L554.148,125.607 L554.148,121.971 L555.245,121.971 C556.785,121.971 557.753,122.035 558.144,122.157 C558.538,122.283 558.838,122.493 559.052,122.781 C559.265,123.069 559.371,123.4 559.371,123.771 C559.371,124.155 559.261,124.494 559.044,124.795 C558.826,125.094 558.53,125.307 558.151,125.426 Z M561.468,130.488 C560.911,129.536 560.583,128.995 560.484,128.865 C560.102,128.363 559.802,128.02 559.585,127.843 C559.367,127.661 559.056,127.495 558.652,127.341 C559.786,127.179 560.666,126.757 561.294,126.074 C561.922,125.39 562.237,124.569 562.237,123.61 C562.237,122.911 562.072,122.275 561.736,121.699 C561.404,121.127 560.99,120.7 560.492,120.424 C559.995,120.143 559.301,119.966 558.404,119.89 C558.1,119.871 556.679,119.859 554.148,119.859 L551.447,119.859 L551.447,133.173 L554.148,133.173 L554.148,127.7 L554.851,127.7 C555.604,127.7 556.229,127.889 556.718,128.268 C557.212,128.644 557.832,129.559 558.586,131.009 L559.699,133.173 L563.039,133.173 L561.468,130.488 Z"
              id="Fill-13" fill="#FFFFFF" fill-rule="nonzero"></path>
    </g>
</svg>