<?xml version="1.0" encoding="UTF-8"?>
<svg width="210px" height="27px" viewBox="0 0 210 27" version="1.1" xmlns="http://www.w3.org/2000/svg"
>
    <!-- Generator: Sketch 49.3 (51167) - http://www.bohemiancoding.com/sketch -->
    <title>TalentMine Logo Copy</title>
    <desc>Created with Sketch.</desc>
    <defs></defs>
    <g id="manager---if-we-did-goals-and-FOY" stroke="none" stroke-width="1" fill="none" fill-rule="evenodd">
        <g id="splash" transform="translate(-100.000000, -77.000000)" fill="#FFFFFF" fill-rule="nonzero">
            <g id="TalentMine-Logo-Copy" transform="translate(100.000000, 77.000000)">
                <polygon id="Shape"
                         points="7.2515625 5.895 0.5796875 5.895 0.5796875 1.125 19.4578125 1.125 19.4578125 5.88375 12.775 5.88375 12.775 26.13375 7.2515625 26.13375"></polygon>
                <path d="M26.25,1.125 L32.8125,1.125 L40.46875,26.145 L34.6828125,26.145 L33.184375,20.25 L25.7578125,20.25 L24.2703125,26.20125 L18.6703125,26.20125 L26.25,1.125 Z M26.8515625,15.75 L32.0359375,15.75 L31.5109375,13.5 C30.8328125,11.01375 30.165625,8.055 29.53125,5.445 L29.378125,5.445 C28.7875,8.08875 28.153125,11.07 27.475,13.5 L26.8515625,15.75 Z"
                      id="Shape"></path>
                <polygon id="Shape"
                         points="43.1484375 1.125 48.6171875 1.125 48.6171875 21.375 58.2421875 21.375 58.2421875 26.13375 43.1484375 26.13375"></polygon>
                <polygon id="Shape"
                         points="62.4859375 1.125 77.7109375 1.125 77.7109375 5.88375 67.965625 5.88375 67.965625 10.9125 76.2453125 10.9125 76.2453125 15.6375 67.965625 15.6375 67.965625 21.375 78.0828125 21.375 78.0828125 26.13375 62.4859375 26.13375"></polygon>
                <path d="M82.928125,1.125 L88.59375,1.125 L94.9375,13.5 L97.34375,19.125 L97.4859375,19.125 C97.2671875,16.48125 96.81875,12.94875 96.81875,9.99 L96.81875,1.125 L102.035937,1.125 L102.035937,26.15625 L96.359375,26.15625 L90.015625,13.68 L87.63125,8.235 L87.5,8.235 C87.7296875,11.0025 88.178125,14.3325 88.178125,17.29125 L88.178125,26.15625 L82.928125,26.15625 L82.928125,1.125 Z"
                      id="Shape"></path>
                <polygon id="Shape"
                         points="112.48125 5.895 105.798438 5.895 105.798438 1.125 124.6875 1.125 124.6875 5.88375 118.004688 5.88375 118.004688 26.13375 112.535938 26.13375"></polygon>
                <path d="M129.346875,0.8325 L131.25,0.8325 L136.54375,16.1775 L138.55625,21.9375 L138.709375,21.9375 C139.376563,20.01375 139.978125,18.10125 140.645313,16.1775 L145.95,0.8325 L147.885938,0.8325 L147.885938,26.15625 L146.69375,26.15625 L146.69375,8.505 C146.69375,6.5025 146.770313,4.005 146.846875,1.90125 L146.69375,1.90125 L144.790625,7.52625 L139.234375,23.34375 L137.965625,23.34375 L132.365625,7.52625 L130.429688,1.90125 L130.276563,1.90125 C130.353125,3.97125 130.429688,6.5025 130.429688,8.505 L130.429688,26.15625 L129.335938,26.15625 L129.346875,0.8325 Z"
                      id="Shape" stroke="#FFFFFF" stroke-width="0.743044355"></path>
                <polygon id="Shape" stroke="#FFFFFF" stroke-width="0.743044355"
                         points="155.4 0.8325 156.592187 0.8325 156.592187 26.15625 155.4 26.15625"></polygon>
                <path d="M164.0625,0.8325 L165.33125,0.8325 L176.26875,19.40625 L179.1125,24.39 L179.254687,24.39 C179.178125,21.9375 179.1125,19.63125 179.1125,17.2575 L179.1125,0.8325 L180.20625,0.8325 L180.20625,26.15625 L178.9375,26.15625 L168,7.5825 L165.15625,2.5875 L165.014062,2.5875 C165.090625,4.9725 165.15625,7.0875 165.15625,9.50625 L165.15625,26.15625 L164.0625,26.15625 L164.0625,0.8325 Z"
                      id="Shape" stroke="#FFFFFF" stroke-width="0.743044355"></path>
                <polygon id="Shape" stroke="#FFFFFF" stroke-width="0.743044355"
                         points="186.539063 0.8325 199.751563 0.8325 199.751563 1.90125 187.720313 1.90125 187.720313 12.11625 197.804688 12.11625 197.804688 13.185 187.720313 13.185 187.720313 25.0875 200.15625 25.0875 200.15625 26.15625 186.539063 26.15625"></polygon>
                <path d="M206.71875,20.565 C207.194144,20.5683166 207.660889,20.69608 208.075,20.93625 C208.506195,21.1790969 208.862426,21.5416075 209.103125,21.9825 C209.584679,22.8585881 209.584679,23.9301619 209.103125,24.80625 C208.869789,25.2490117 208.5164,25.6124969 208.085938,25.8525 C207.668968,26.0954692 207.197982,26.2233619 206.71875,26.22375 C206.23971,26.2218491 205.769091,26.0940557 205.351563,25.8525 C204.9211,25.6124969 204.567711,25.2490117 204.334375,24.80625 C204.099529,24.3767923 203.975286,23.8927265 203.973438,23.4 C203.972666,22.9018964 204.101033,22.4125894 204.345313,21.9825 C204.580017,21.5369448 204.937773,21.1728809 205.373438,20.93625 C205.783577,20.6960709 206.246807,20.568239 206.71875,20.565 Z M206.71875,21.0375 C206.335485,21.0450988 205.9599,21.1494041 205.625,21.34125 C205.262119,21.5399856 204.96509,21.8455006 204.771875,22.21875 C204.566972,22.5769494 204.457562,22.9844078 204.454688,23.4 C204.461693,23.7957468 204.567127,24.183053 204.760938,24.525 C204.963781,24.8908045 205.258419,25.1938605 205.614063,25.4025 C206.31734,25.8228352 207.185785,25.8228352 207.889063,25.4025 C208.247788,25.1980413 208.543408,24.8939748 208.742188,24.525 C208.935998,24.183053 209.041432,23.7957468 209.048438,23.4 C209.043993,22.9861044 208.938698,22.5799648 208.742188,22.21875 C208.522444,21.8472124 208.198267,21.5530018 207.8125,21.375 C207.480597,21.1713478 207.104832,21.0553973 206.71875,21.0375 Z M205.515625,24.96375 L205.515625,21.915 L206.532813,21.915 C206.787408,21.9040829 207.042087,21.9344546 207.2875,22.005 C207.592646,22.1159327 207.795052,22.4146397 207.790625,22.7475 C207.792362,22.9627725 207.709543,23.1696518 207.560938,23.32125 C207.399165,23.4919895 207.180025,23.5926151 206.948438,23.6025 C207.040156,23.6403839 207.125156,23.6936012 207.2,23.76 C207.364924,23.9471897 207.511469,24.1506776 207.6375,24.3675 L207.998438,24.96375 L207.41875,24.96375 L207.15625,24.48 C207.029371,24.215776 206.859172,23.9760177 206.653125,23.77125 C206.539906,23.6949137 206.405289,23.6593089 206.270313,23.67 L205.996875,23.67 L205.996875,24.96375 L205.515625,24.96375 Z M205.996875,23.25375 L206.576563,23.25375 C206.772017,23.2753249 206.968781,23.2277047 207.134375,23.11875 C207.235663,23.0384939 207.29276,22.912649 207.2875,22.78125 C207.291116,22.6954921 207.263855,22.611375 207.210938,22.545 C207.16307,22.4724901 207.094172,22.4173715 207.014063,22.3875 C206.854694,22.3608306 206.692181,22.3608306 206.532813,22.3875 L205.996875,22.3875 L205.996875,23.25375 Z"
                      id="Shape"></path>
            </g>
        </g>
    </g>
</svg>